<?xml version="1.0" standalone="no"?>
<!DOCTYPE svg PUBLIC "-//W3C//DTD SVG 20010904//EN"
 "http://www.w3.org/TR/2001/REC-SVG-20010904/DTD/svg10.dtd">
<svg version="1.0" xmlns="http://www.w3.org/2000/svg"
 width="1610.000000pt" height="1630.000000pt" viewBox="0 0 1610.000000 1630.000000"
 preserveAspectRatio="xMidYMid meet">
<metadata>
Created by potrace 1.16, written by Peter Selinger 2001-2019
</metadata>
<g transform="translate(0.000000,1630.000000) scale(0.100000,-0.100000)"
fill="white" stroke="none">

<path d="M10127 14794 c-3 -3 -59 -9 -125 -13 -108 -7 -125 -11 -174 -39 -40
-23 -81 -36 -153 -47 -104 -17 -123 -24 -167 -61 -15 -12 -52 -29 -81 -38 -29
-8 -73 -31 -98 -51 -36 -28 -63 -39 -125 -50 -43 -8 -96 -22 -116 -31 -20 -9
-47 -14 -60 -11 -106 27 -144 42 -161 63 -15 19 -28 24 -65 24 -26 0 -71 9
-100 20 -46 18 -76 20 -263 20 -194 0 -213 -2 -252 -21 -36 -19 -52 -21 -129
-16 -68 4 -102 2 -151 -12 -34 -10 -112 -22 -172 -26 -132 -8 -228 -27 -311
-60 -34 -14 -103 -32 -155 -41 -59 -10 -115 -27 -151 -46 -31 -16 -94 -36
-140 -45 -132 -25 -153 -31 -192 -62 -22 -18 -63 -35 -109 -46 -81 -20 -100
-28 -139 -61 -15 -12 -49 -30 -75 -40 -26 -9 -70 -34 -98 -54 -27 -21 -68 -43
-90 -50 -22 -7 -56 -27 -75 -46 -20 -19 -62 -43 -95 -54 -33 -11 -73 -34 -90
-50 -16 -16 -52 -39 -80 -51 -50 -22 -65 -34 -269 -211 -101 -88 -137 -121
-185 -169 -35 -36 -117 -106 -143 -122 -15 -9 -34 -30 -43 -46 -8 -17 -28 -38
-45 -47 -16 -10 -35 -31 -41 -47 -7 -16 -30 -43 -52 -60 -21 -18 -47 -48 -57
-67 -10 -19 -30 -46 -45 -60 -15 -14 -33 -37 -41 -52 -7 -14 -32 -47 -53 -72
-22 -26 -49 -65 -59 -89 -11 -23 -32 -53 -47 -67 -15 -14 -38 -50 -52 -80 -13
-30 -37 -72 -54 -92 -16 -21 -38 -65 -49 -99 -10 -34 -33 -79 -50 -100 -16
-21 -39 -65 -49 -99 -10 -33 -33 -81 -49 -107 -18 -28 -38 -80 -47 -123 -11
-47 -28 -91 -47 -118 -25 -36 -33 -64 -53 -185 -23 -141 -38 -195 -70 -257
-23 -45 -45 -187 -45 -293 0 -62 -6 -104 -20 -145 -17 -48 -19 -71 -14 -143 6
-74 4 -92 -15 -133 -19 -43 -21 -67 -21 -214 0 -149 3 -177 30 -286 16 -67 39
-197 50 -291 12 -101 30 -200 45 -245 13 -41 34 -129 45 -195 11 -66 30 -138
41 -160 12 -22 29 -56 39 -75 10 -19 25 -61 33 -93 8 -31 29 -78 46 -104 17
-26 36 -65 42 -87 15 -61 30 -97 56 -136 12 -19 35 -70 49 -113 14 -43 37 -90
50 -106 13 -16 37 -57 53 -92 15 -35 38 -73 51 -84 12 -11 32 -40 45 -65 13
-25 35 -56 50 -70 15 -14 38 -47 52 -75 14 -27 42 -69 62 -91 20 -23 61 -71
91 -108 63 -76 417 -436 429 -436 21 0 28 -54 23 -185 -6 -200 10 -337 48
-397 16 -26 38 -77 49 -113 12 -43 33 -82 58 -111 97 -114 161 -178 195 -195
21 -10 46 -29 57 -40 11 -12 68 -39 128 -61 59 -22 124 -46 143 -53 138 -52
516 -44 662 14 40 17 114 37 163 46 110 21 136 30 181 65 24 20 67 36 148 56
104 25 120 27 182 16 38 -6 102 -15 142 -21 81 -12 522 -13 763 -2 134 6 160
10 193 29 29 17 51 22 100 20 34 -1 67 1 72 5 6 3 52 13 104 22 188 31 198 34
232 71 28 29 39 34 77 34 100 0 221 22 254 46 50 37 86 51 167 64 59 10 80 18
100 40 33 35 55 46 110 55 55 9 75 19 123 61 20 19 44 34 52 34 33 0 92 32
108 59 10 18 31 32 59 40 65 20 98 39 110 66 7 15 28 30 62 42 35 12 57 28 71
50 11 18 33 38 50 45 16 7 53 33 81 59 28 26 68 52 88 59 23 7 42 22 51 41 9
16 33 38 55 49 22 11 47 34 55 50 10 19 31 36 54 46 25 10 45 27 56 49 10 18
34 40 52 49 21 10 39 29 48 50 8 18 29 45 48 59 19 14 40 39 46 55 7 16 28 38
46 48 25 13 40 32 55 70 12 30 38 67 60 87 23 21 43 50 51 76 8 28 21 47 39
56 15 8 32 28 39 45 6 16 16 43 22 60 6 16 19 32 29 35 38 12 54 45 74 155 4
17 16 29 36 37 37 14 52 50 48 117 -3 47 -5 51 -30 54 -34 4 -58 -29 -58 -83
0 -65 -9 -81 -50 -98 -35 -13 -41 -21 -56 -72 -11 -41 -27 -69 -54 -94 -22
-21 -43 -54 -51 -79 -10 -34 -21 -48 -50 -62 -30 -16 -41 -29 -53 -68 -11 -33
-25 -53 -46 -65 -17 -10 -30 -23 -30 -28 0 -6 -22 -34 -49 -62 -27 -29 -60
-75 -75 -104 -14 -28 -35 -54 -46 -58 -11 -4 -37 -27 -58 -51 -20 -25 -51 -53
-68 -63 -18 -11 -40 -32 -49 -49 -10 -17 -36 -40 -59 -53 -22 -12 -66 -46 -98
-76 -32 -29 -63 -53 -68 -53 -6 0 -20 -15 -31 -34 -12 -21 -35 -40 -58 -49
-20 -9 -49 -31 -64 -50 -16 -21 -38 -37 -57 -41 -17 -3 -51 -25 -77 -50 -31
-30 -60 -48 -92 -56 -49 -12 -81 -35 -81 -56 0 -17 -23 -28 -89 -44 -34 -8
-67 -24 -90 -45 -23 -21 -59 -39 -100 -51 -42 -11 -78 -30 -106 -54 -35 -30
-55 -39 -115 -49 -75 -12 -130 -34 -130 -52 0 -17 -61 -36 -159 -48 -92 -12
-133 -26 -180 -62 -18 -14 -41 -19 -91 -19 -36 0 -91 -4 -121 -10 -30 -5 -108
-14 -174 -19 -68 -6 -140 -17 -165 -27 -34 -14 -79 -18 -191 -20 -80 -1 -154
-6 -165 -12 -20 -11 -552 -7 -563 4 -3 3 0 13 7 22 7 9 23 40 36 68 16 35 36
58 62 74 22 13 56 38 76 56 20 18 52 41 70 50 43 22 470 449 492 492 17 33 84
114 155 187 21 22 46 57 56 77 9 20 28 44 41 53 13 8 33 33 44 56 12 22 36 57
54 77 18 20 45 60 59 87 13 28 35 59 47 70 12 11 33 43 47 70 14 28 38 64 53
80 16 17 36 50 46 75 9 25 32 61 50 80 18 19 42 60 53 91 12 30 35 68 51 84
19 19 36 50 47 88 10 39 30 75 55 104 21 24 41 56 44 71 9 37 32 82 60 115 22
27 30 48 54 144 6 23 24 57 40 75 16 18 37 57 46 88 8 30 30 80 49 111 19 30
41 85 50 122 10 36 33 90 51 119 19 29 37 64 40 78 24 107 37 148 54 170 31
38 48 79 60 142 6 31 25 77 42 103 18 28 41 85 55 138 13 50 37 112 53 138 20
30 37 79 51 139 21 99 30 123 60 156 11 11 28 60 39 114 11 53 30 110 44 130
28 43 42 84 57 173 6 38 21 82 35 102 39 58 44 71 65 176 11 59 32 126 49 158
17 33 38 99 50 160 13 62 33 127 51 162 19 37 35 89 44 145 16 95 26 130 61
215 12 30 32 111 43 180 12 68 28 149 37 179 28 95 61 260 83 410 12 80 30
172 40 205 10 33 21 102 25 153 8 107 17 136 54 175 19 20 24 32 17 41 -52 71
-50 56 -56 311 -7 252 -17 324 -58 403 -12 23 -29 75 -38 115 -11 54 -24 81
-48 107 -17 19 -42 50 -55 69 -36 52 -89 99 -150 131 -30 17 -66 39 -80 50
-38 30 -321 66 -343 44z m204 -215 c20 -5 44 -18 55 -30 10 -12 39 -32 65 -44
25 -13 50 -35 57 -49 6 -14 26 -42 45 -63 18 -21 42 -60 52 -88 10 -27 30 -75
45 -105 50 -100 64 -257 28 -319 l-22 -38 26 -79 27 -79 -10 -263 c-9 -265
-14 -308 -49 -417 -10 -33 -26 -109 -35 -170 -28 -193 -46 -277 -71 -336 -13
-32 -32 -111 -43 -177 -12 -76 -28 -136 -44 -168 -14 -28 -37 -106 -52 -175
-15 -72 -36 -142 -51 -169 -15 -25 -36 -93 -49 -156 -13 -64 -36 -136 -53
-171 -17 -33 -38 -91 -47 -129 -9 -38 -33 -107 -55 -154 -21 -47 -44 -112 -50
-145 -13 -61 -32 -108 -56 -136 -7 -8 -24 -57 -38 -108 -13 -51 -33 -105 -43
-120 -33 -44 -42 -65 -57 -142 -10 -46 -29 -94 -50 -129 -19 -31 -42 -86 -51
-123 -10 -36 -32 -89 -50 -117 -18 -28 -40 -81 -49 -117 -18 -68 -36 -110 -68
-154 -10 -14 -26 -52 -34 -85 -9 -32 -33 -88 -54 -124 -21 -36 -43 -89 -50
-118 -7 -29 -27 -74 -45 -100 -17 -26 -42 -78 -55 -115 -12 -38 -35 -83 -50
-100 -15 -18 -37 -63 -50 -100 -12 -38 -35 -83 -50 -100 -15 -18 -37 -63 -50
-100 -12 -38 -35 -83 -51 -101 -15 -18 -37 -57 -49 -87 -12 -30 -32 -65 -46
-80 -13 -14 -35 -54 -49 -89 -14 -35 -38 -78 -54 -95 -16 -16 -38 -52 -50 -80
-12 -27 -35 -63 -51 -80 -16 -16 -36 -50 -46 -75 -9 -25 -32 -61 -50 -80 -18
-19 -40 -52 -49 -73 -8 -20 -31 -54 -49 -75 -19 -20 -44 -56 -56 -80 -13 -24
-34 -50 -47 -59 -13 -9 -33 -34 -45 -57 -11 -23 -36 -57 -55 -76 -69 -71 -131
-146 -148 -179 -20 -40 -447 -470 -515 -518 -71 -52 -132 -99 -176 -137 -23
-20 -59 -42 -81 -50 -21 -7 -66 -28 -99 -46 -52 -28 -66 -31 -120 -28 -47 3
-71 10 -102 32 -45 31 -116 51 -215 61 -70 7 -74 9 -124 69 -18 22 -30 26 -72
26 -62 0 -98 13 -136 51 -23 21 -47 32 -90 39 -83 15 -112 28 -136 61 -13 19
-32 30 -57 34 -64 11 -74 16 -113 56 -25 26 -55 43 -93 54 -44 13 -60 23 -71
46 -9 17 -31 35 -53 44 -54 23 -152 127 -152 162 1 80 28 204 52 240 15 21 36
70 47 109 12 39 30 79 42 90 12 10 36 48 54 84 18 36 43 74 55 85 12 11 31 38
42 60 19 37 79 111 128 160 12 11 36 36 56 55 19 19 38 39 43 44 5 4 27 26 49
48 22 22 45 45 52 52 6 6 33 32 60 58 26 26 68 56 92 68 25 11 56 32 68 45 13
13 51 34 86 45 35 12 82 36 103 54 28 24 59 37 114 49 41 9 100 27 131 41 90
40 304 76 452 76 38 0 104 8 146 19 68 16 81 16 115 4 21 -8 94 -18 163 -23
69 -4 194 -13 277 -20 138 -11 155 -11 178 4 30 20 33 56 5 73 -11 7 -70 24
-132 37 -62 14 -134 34 -160 45 -68 31 -264 44 -572 39 l-261 -5 -105 -35
c-58 -20 -150 -46 -205 -58 -73 -15 -113 -30 -150 -55 -27 -18 -74 -41 -103
-50 -29 -9 -65 -27 -81 -40 -15 -13 -61 -39 -102 -58 -41 -19 -83 -44 -94 -57
-11 -12 -41 -33 -67 -46 -26 -13 -55 -36 -64 -50 -10 -14 -34 -34 -55 -45 -21
-10 -46 -31 -56 -45 -9 -14 -34 -37 -55 -50 -20 -13 -44 -37 -52 -53 -9 -16
-31 -39 -50 -51 -19 -11 -38 -31 -42 -43 -4 -12 -28 -43 -53 -69 -89 -92 -129
-144 -147 -188 -9 -25 -30 -58 -45 -75 -15 -16 -41 -59 -57 -95 -16 -36 -36
-71 -45 -79 -31 -25 -58 -80 -67 -136 -9 -56 -23 -85 -41 -85 -5 0 -19 12 -32
26 -12 14 -39 35 -59 45 -21 11 -45 33 -53 50 -9 17 -32 40 -52 51 -23 14 -42
37 -54 65 -11 25 -29 48 -43 55 -14 6 -28 20 -32 31 -3 11 -29 45 -58 77 -113
126 -164 192 -175 230 -8 27 -21 45 -41 55 -22 11 -32 28 -45 72 -12 40 -28
67 -55 92 -23 22 -44 55 -53 84 -9 27 -32 66 -51 87 -33 36 -56 105 -56 165 0
16 -12 33 -35 51 -37 28 -55 72 -55 136 0 29 -8 47 -35 76 -44 49 -53 75 -70
193 -10 72 -20 107 -39 136 -39 59 -59 168 -52 283 7 94 6 96 -23 135 -45 61
-61 139 -72 345 -10 190 -8 235 18 355 10 48 14 128 13 251 l0 182 35 67 c20
37 43 78 52 92 12 17 14 37 10 76 -5 40 -2 62 14 97 35 78 117 326 133 406 10
45 31 103 50 139 19 33 40 83 47 110 14 60 34 100 65 138 13 16 35 66 49 111
14 47 35 92 47 102 11 11 33 47 49 82 16 34 42 79 58 100 16 20 39 61 50 90
10 29 35 70 55 92 19 21 44 57 55 78 11 21 31 46 44 55 13 8 32 32 41 52 10
19 33 52 52 73 74 79 132 149 162 193 17 25 48 58 69 74 21 16 86 72 145 125
162 145 200 175 243 197 22 12 49 31 60 43 11 12 43 34 70 47 28 14 70 43 94
64 24 22 50 39 58 39 7 0 32 17 56 38 23 22 68 51 99 65 32 14 72 37 90 50 18
14 63 34 100 46 37 12 83 35 103 51 20 16 62 36 93 45 60 16 92 31 156 70 26
15 70 28 124 35 53 8 102 22 135 40 55 29 108 43 222 60 39 6 95 20 125 32 36
13 78 20 124 20 38 0 87 7 110 15 23 8 73 16 111 18 39 2 135 6 215 10 80 3
171 11 204 16 68 12 280 -4 388 -28 53 -12 74 -13 102 -3 20 6 40 9 46 5 5 -3
10 -35 10 -71 0 -72 -14 -95 -78 -121 -21 -8 -55 -32 -77 -54 -107 -106 -142
-137 -162 -143 -12 -4 -31 -22 -43 -41 -11 -18 -36 -42 -55 -53 -18 -12 -41
-34 -50 -51 -8 -17 -29 -38 -46 -46 -17 -9 -40 -32 -51 -51 -11 -19 -34 -42
-50 -50 -16 -8 -38 -31 -50 -49 -11 -19 -35 -44 -53 -55 -19 -12 -37 -31 -41
-43 -4 -12 -28 -43 -53 -69 -25 -26 -66 -72 -91 -103 -25 -31 -66 -79 -91
-108 -26 -29 -56 -70 -67 -92 -11 -22 -34 -53 -52 -70 -18 -16 -40 -47 -51
-67 -11 -21 -31 -45 -45 -54 -14 -10 -34 -35 -46 -58 -11 -23 -35 -57 -54 -76
-18 -19 -42 -55 -53 -80 -11 -25 -32 -57 -47 -70 -15 -14 -38 -50 -51 -80 -14
-30 -37 -68 -53 -85 -16 -16 -38 -50 -49 -75 -11 -25 -33 -58 -50 -74 -17 -16
-38 -51 -47 -78 -9 -27 -31 -69 -50 -94 -19 -25 -42 -64 -51 -87 -9 -23 -31
-62 -50 -87 -18 -24 -41 -69 -49 -100 -9 -30 -32 -75 -50 -100 -19 -24 -42
-69 -50 -100 -9 -30 -30 -73 -47 -95 -22 -27 -39 -68 -55 -130 -13 -49 -34
-106 -47 -125 -27 -39 -48 -95 -59 -154 -4 -22 -25 -83 -47 -136 -25 -64 -44
-132 -54 -200 -9 -61 -27 -130 -44 -169 -37 -85 -46 -179 -46 -481 0 -245 6
-286 46 -339 11 -13 28 -55 40 -93 14 -49 32 -83 58 -112 21 -22 46 -56 55
-73 9 -18 30 -40 46 -48 16 -8 37 -29 45 -45 8 -16 32 -38 53 -49 20 -11 52
-31 71 -45 39 -29 91 -34 115 -11 13 13 13 20 1 55 -23 64 -34 79 -74 99 -53
27 -154 128 -180 179 -12 23 -25 42 -30 42 -16 0 -41 67 -76 206 -42 165 -46
268 -15 372 11 37 28 126 38 197 15 102 27 148 55 210 19 44 41 109 48 144 8
41 24 82 46 114 22 32 41 79 52 128 13 57 27 88 49 113 18 21 39 63 51 103 11
38 34 89 50 115 16 26 38 70 48 98 10 28 32 66 50 85 20 21 39 57 49 92 9 33
29 71 45 88 16 17 40 59 53 94 14 34 41 80 60 101 19 21 40 57 47 79 7 23 27
58 45 80 18 21 41 58 50 82 9 24 32 60 49 79 18 19 43 55 55 80 12 25 33 56
46 70 12 14 34 50 48 81 13 30 36 63 50 72 14 10 37 39 50 65 13 26 36 58 50
71 15 14 38 45 53 70 14 25 43 65 65 88 21 24 38 47 38 53 0 6 23 34 50 63 49
51 72 76 188 207 75 84 358 367 442 442 119 105 160 143 208 189 26 25 59 51
74 57 15 6 35 23 44 37 9 14 34 35 55 45 20 11 58 37 83 59 54 47 81 56 208
70 80 9 110 18 180 52 46 23 94 47 108 53 23 11 25 17 22 72 -2 41 1 64 10 72
7 6 65 25 128 42 63 18 138 41 165 52 91 36 262 44 366 17z m-4346 -7292 c11
-5 28 -21 39 -35 11 -13 46 -37 79 -53 33 -15 74 -41 91 -57 17 -16 55 -38 83
-50 29 -11 70 -34 90 -51 22 -17 65 -37 103 -46 74 -19 90 -27 124 -58 13 -12
61 -32 110 -46 47 -13 89 -27 92 -32 14 -24 92 -50 204 -68 67 -11 128 -25
133 -30 15 -15 -76 -108 -128 -131 -40 -19 -232 -50 -304 -50 -21 0 -64 -9
-96 -20 -57 -20 -58 -20 -119 0 -33 11 -105 26 -159 34 -80 11 -104 19 -133
42 -19 16 -63 45 -97 64 -53 30 -67 44 -97 100 -20 36 -47 77 -62 91 -18 18
-29 45 -37 85 -6 32 -21 95 -33 138 -27 101 -28 164 -2 183 20 15 82 10 119
-10z"/>
<path d="M9818 14259 c-28 -16 -21 -29 16 -29 30 0 56 14 45 24 -13 11 -47 14
-61 5z"/>
<path d="M9682 14180 c-45 -10 -57 -23 -38 -40 21 -17 83 -5 96 19 16 31 3 36
-58 21z"/>
<path d="M10047 14163 c-18 -17 -5 -33 27 -33 50 0 69 9 55 26 -12 14 -70 19
-82 7z"/>
<path d="M9883 14070 c-30 -12 -29 -28 1 -36 41 -10 71 -1 71 21 0 23 -35 30
-72 15z"/>
<path d="M10223 14064 c-4 -11 1 -22 12 -30 24 -17 27 -17 51 1 19 15 19 15 0
30 -26 20 -55 19 -63 -1z"/>
<path d="M10423 13973 c-19 -7 -16 -31 6 -43 37 -19 67 10 39 38 -13 13 -24
14 -45 5z"/>
<path d="M11127 13376 c-10 -25 22 -56 58 -56 28 0 32 3 28 20 -10 40 -75 66
-86 36z"/>
<path d="M11230 13279 c0 -31 24 -49 42 -31 12 12 -4 47 -27 56 -11 4 -15 -2
-15 -25z"/>
<path d="M11935 9551 c-8 -26 5 -73 19 -68 15 5 14 79 -1 84 -6 2 -14 -5 -18
-16z"/>
<path d="M11834 9204 c-8 -30 6 -80 21 -76 15 3 12 95 -2 99 -7 3 -15 -8 -19
-23z"/>
<path d="M11736 8994 c-22 -21 -28 -50 -24 -114 3 -62 19 -73 58 -42 19 15 24
31 28 81 6 82 -22 116 -62 75z"/>
<path d="M2843 5240 c-48 -19 -54 -55 -56 -296 -2 -270 0 -264 -103 -247 -49
9 -77 20 -107 44 -22 18 -70 43 -106 57 -36 13 -80 36 -96 52 -17 16 -57 39
-89 50 -32 11 -73 33 -92 49 -18 17 -62 39 -99 50 -37 11 -80 32 -100 50 -19
17 -61 38 -93 47 -37 11 -70 28 -95 52 -30 30 -45 37 -77 37 -75 0 -72 16 -72
-435 0 -394 0 -403 21 -423 29 -30 113 -29 143 1 22 21 22 29 23 263 0 226 1
241 19 255 30 22 71 17 129 -15 28 -16 63 -32 77 -36 14 -4 48 -24 75 -45 28
-20 71 -44 97 -53 26 -9 64 -29 85 -45 21 -16 65 -39 99 -50 33 -11 81 -35
106 -54 25 -19 66 -40 91 -48 26 -7 63 -27 82 -46 25 -23 63 -41 135 -64 55
-18 106 -30 113 -27 8 3 17 20 21 37 10 52 7 756 -4 784 -16 43 -83 73 -127
56z"/>
<path d="M3240 5238 c-46 -17 -49 -39 -51 -482 -2 -482 -8 -451 91 -451 95 1
101 11 103 181 2 151 10 178 55 195 17 7 136 10 317 9 160 -1 296 -2 303 -1 6
0 21 10 32 21 36 36 19 147 -25 164 -9 3 -156 6 -326 6 l-310 0 -24 25 c-14
13 -25 34 -25 47 0 30 33 84 60 98 16 8 160 11 516 9 494 -2 495 -2 516 19 30
30 31 114 1 143 -20 20 -30 21 -617 22 -329 1 -606 -1 -616 -5z"/>
<path d="M6237 5232 c-32 -35 -38 -84 -36 -294 3 -270 -4 -284 -123 -237 -29
11 -64 31 -78 44 -14 13 -54 36 -90 53 -36 16 -78 41 -95 55 -16 15 -59 35
-95 46 -36 11 -81 34 -100 51 -19 17 -61 38 -94 47 -37 10 -75 30 -103 54 -24
21 -61 43 -82 49 -21 5 -53 21 -72 35 -19 13 -45 32 -58 42 -13 9 -39 17 -57
17 -66 0 -64 14 -65 -443 -1 -477 -7 -446 91 -446 48 1 65 5 81 22 21 21 22
29 20 243 -2 237 5 285 43 300 24 9 44 0 80 -33 13 -13 47 -29 75 -36 29 -7
69 -28 91 -46 22 -18 62 -41 90 -50 28 -9 68 -32 91 -51 22 -18 62 -40 89 -48
58 -17 86 -31 122 -62 15 -12 57 -32 93 -44 36 -12 79 -33 95 -46 15 -13 50
-34 77 -46 26 -11 63 -34 81 -49 40 -36 47 -36 69 -2 17 25 18 61 18 429 0
393 0 403 -21 431 -17 23 -30 29 -71 31 -38 2 -53 -1 -66 -16z"/>
<path d="M7035 5230 c-39 -43 -41 -123 -3 -157 18 -16 41 -18 227 -18 197 0
207 -1 237 -22 64 -46 66 -62 63 -389 -4 -292 -4 -294 18 -316 32 -31 114 -31
146 0 22 22 22 24 18 316 -4 326 -1 343 63 389 30 21 40 22 244 22 l214 0 24
28 c32 37 33 96 1 132 l-22 26 -608 2 c-530 2 -610 0 -622 -13z"/>
<path d="M8585 5235 c-16 -9 -38 -25 -47 -36 -24 -29 -23 -104 2 -149 10 -19
30 -57 44 -85 31 -64 117 -148 177 -174 26 -10 50 -24 54 -30 13 -22 62 -39
149 -54 131 -23 128 -19 124 -209 -4 -189 -2 -193 92 -193 48 1 65 5 82 22 20
21 21 30 19 175 -3 180 -2 181 101 205 35 8 90 28 123 45 33 16 83 39 112 50
34 12 60 30 70 46 9 15 34 45 54 67 44 47 68 106 76 190 4 52 2 65 -19 95 -19
28 -30 35 -58 35 -28 0 -39 -7 -66 -42 -18 -23 -40 -63 -49 -90 -28 -78 -38
-94 -70 -110 -16 -9 -45 -28 -62 -44 -18 -15 -50 -32 -70 -38 -56 -14 -280
-34 -300 -27 -9 4 -61 11 -115 16 -54 5 -109 15 -121 21 -12 6 -53 41 -90 78
-60 59 -70 73 -88 136 -19 67 -54 115 -82 115 -7 0 -25 -7 -42 -15z"/>
<path d="M10840 5238 c-46 -17 -49 -39 -50 -469 -1 -222 -1 -412 -1 -421 1
-10 14 -24 31 -33 24 -13 85 -15 379 -15 424 0 516 10 581 65 8 7 32 18 54 25
21 7 64 35 95 63 49 44 75 75 148 175 12 18 17 46 17 110 1 119 -10 176 -42
214 -15 17 -38 52 -52 77 -19 35 -37 52 -76 71 -28 14 -65 37 -83 52 -17 15
-39 29 -48 32 -31 8 -175 34 -258 46 -89 12 -666 19 -695 8z m770 -203 c41
-14 93 -30 116 -35 30 -7 59 -27 105 -72 l64 -62 3 -75 c4 -93 -13 -131 -78
-178 -25 -18 -59 -44 -76 -58 -67 -53 -79 -55 -412 -55 -296 0 -309 1 -330 20
-21 20 -22 28 -22 231 0 174 3 217 16 245 30 63 33 64 298 64 230 0 243 -1
316 -25z"/>
<path d="M12334 5229 c-30 -33 -34 -90 -34 -486 0 -390 1 -404 20 -423 20 -20
33 -20 625 -20 676 0 658 -2 671 65 3 19 3 51 0 70 -13 66 -5 65 -575 65 -588
0 -546 -7 -539 93 7 102 -3 99 357 96 321 -2 346 1 375 43 20 28 20 41 0 84
-30 63 -38 64 -388 64 -314 0 -315 0 -330 22 -25 35 -20 91 11 128 l26 31 505
-2 505 -2 24 27 c14 16 23 40 23 59 0 31 -32 97 -47 97 -5 1 -279 2 -611 3
-544 2 -605 0 -618 -14z"/>
<path d="M13835 5225 c-40 -39 -34 -77 20 -129 25 -25 45 -49 45 -55 0 -6 20
-33 45 -61 24 -28 52 -65 61 -83 9 -17 34 -51 55 -74 22 -24 39 -47 39 -53 0
-5 23 -35 50 -65 28 -30 50 -60 50 -65 0 -5 20 -32 45 -60 25 -28 53 -67 64
-88 10 -20 31 -48 46 -62 15 -14 38 -46 51 -72 26 -52 48 -63 102 -53 44 8 69
29 86 70 7 17 32 52 55 79 23 26 50 65 61 85 10 21 29 45 42 53 13 9 34 36 47
62 13 25 34 53 47 61 13 8 33 33 44 54 11 22 38 60 60 86 22 26 49 64 60 84
10 21 30 45 43 54 13 8 32 31 41 51 9 20 32 47 51 62 30 23 35 32 35 70 0 52
-25 74 -85 74 -53 0 -155 -71 -185 -129 -10 -22 -38 -60 -60 -86 -22 -26 -49
-63 -59 -83 -11 -21 -33 -47 -50 -60 -17 -12 -31 -29 -31 -36 0 -8 -19 -36
-43 -62 -24 -27 -56 -72 -72 -101 -23 -43 -36 -56 -71 -69 -64 -25 -89 -14
-123 54 -16 31 -41 68 -56 82 -15 14 -38 46 -51 72 -13 26 -33 52 -44 58 -11
6 -31 30 -45 53 -13 24 -36 54 -50 67 -15 14 -39 48 -56 76 -16 29 -57 77 -90
108 -54 51 -64 56 -105 56 -34 0 -51 -6 -69 -25z"/>
<path d="M6644 5208 c-42 -20 -44 -41 -44 -463 0 -472 -6 -445 100 -445 106 0
100 -27 100 445 0 275 -4 412 -11 428 -19 43 -93 60 -145 35z"/>
<path d="M1284 5187 l-26 -23 0 -408 c0 -400 0 -409 21 -429 29 -29 113 -29
142 0 21 21 21 28 21 429 l0 408 -26 23 c-36 31 -96 31 -132 0z"/>
<path d="M4720 5195 c-13 -15 -15 -87 -18 -436 -3 -417 -3 -418 19 -440 18
-18 29 -21 72 -16 93 11 87 -17 87 452 0 400 -1 412 -20 430 -30 27 -121 33
-140 10z"/>
<path d="M10083 4873 c-55 -11 -87 -119 -45 -155 29 -26 56 -29 265 -29 203 0
241 5 266 35 20 24 8 103 -18 130 -21 20 -31 21 -234 22 -116 1 -222 0 -234
-3z"/>
<path d="M5652 3084 c-12 -3 -30 -17 -40 -32 -15 -23 -17 -60 -19 -317 0 -159
-2 -314 -3 -343 -4 -84 2 -86 183 -90 169 -3 202 5 202 48 0 36 -37 50 -138
50 -136 0 -169 29 -152 133 8 48 23 79 58 122 23 27 27 29 50 16 45 -24 95 8
71 47 -11 16 -22 17 -83 10 -18 -2 -31 7 -57 46 -37 52 -42 91 -23 159 14 53
40 65 132 65 55 0 84 4 102 16 31 20 32 42 3 57 -23 12 -243 22 -286 13z"/>
<path d="M6352 3083 c-12 -2 -30 -16 -40 -31 -15 -23 -17 -60 -19 -317 0 -159
-2 -314 -3 -343 -4 -82 4 -86 164 -90 160 -4 204 6 239 52 14 18 39 39 55 45
38 16 52 48 52 122 0 70 -8 88 -67 152 l-45 48 6 62 c3 34 8 91 12 125 l6 64
-49 45 c-26 25 -62 52 -80 59 -31 13 -176 17 -231 7z m216 -99 c12 -8 22 -20
22 -26 0 -6 12 -35 27 -64 l27 -54 -29 -30 c-37 -39 -133 -93 -151 -86 -26 10
-74 98 -74 135 0 55 18 109 43 126 28 20 106 19 135 -1z m63 -364 c8 0 25 -7
37 -16 44 -31 20 -157 -35 -183 -15 -8 -62 -16 -104 -19 -123 -7 -161 27 -144
131 9 51 18 70 61 124 l34 42 69 -40 c37 -21 74 -39 82 -39z"/>
<path d="M10744 3081 c-80 -21 -82 -27 -85 -410 l-3 -324 27 -21 c26 -19 44
-21 185 -24 174 -3 207 5 207 48 0 36 -37 50 -138 50 -91 0 -139 14 -151 45
-20 54 5 147 56 209 24 28 25 28 55 13 40 -21 66 -5 61 38 -3 26 -7 30 -33 29
-16 0 -37 -4 -47 -8 -12 -6 -25 5 -53 41 -36 47 -37 50 -32 117 4 59 9 73 30
92 22 19 38 22 106 22 59 0 88 4 106 16 31 20 32 42 3 57 -27 14 -249 22 -294
10z"/>
<path d="M11452 3083 c-12 -2 -30 -16 -40 -31 -15 -23 -17 -62 -18 -365 -1
-364 -1 -367 50 -367 42 0 49 22 43 125 -6 107 2 147 38 190 l25 30 22 -30
c13 -16 43 -52 69 -80 28 -30 50 -64 54 -85 9 -42 32 -90 44 -90 4 0 24 -16
44 -35 37 -36 73 -45 95 -23 22 22 13 56 -19 80 -17 13 -41 46 -54 73 -12 28
-37 64 -55 82 -26 25 -33 40 -34 74 0 25 4 44 11 46 38 13 78 51 86 83 4 19
13 50 18 68 23 72 -24 177 -102 229 -39 26 -50 28 -148 30 -58 1 -116 -1 -129
-4z m208 -93 c10 -6 31 -33 46 -60 15 -28 31 -50 36 -50 5 0 11 -6 14 -14 6
-17 -88 -113 -124 -127 -52 -20 -78 -12 -111 38 -33 50 -39 90 -21 155 6 21
21 44 33 53 24 17 99 20 127 5z"/>
<path d="M12292 3069 c-54 -27 -119 -101 -132 -150 -9 -32 -7 -46 10 -83 11
-25 20 -49 20 -55 0 -6 5 -21 11 -35 13 -28 41 -39 138 -56 48 -9 75 -20 106
-45 22 -19 62 -43 89 -55 l48 -20 -4 -62 c-4 -47 -9 -65 -27 -79 -26 -21 -112
-33 -184 -26 -44 4 -55 10 -82 41 -24 29 -41 39 -72 43 -41 5 -83 -9 -83 -29
0 -21 133 -138 169 -148 54 -15 206 -12 246 4 19 8 41 28 50 45 8 17 29 38 45
46 35 18 45 36 54 90 9 51 -5 87 -51 139 -48 55 -88 76 -144 76 -39 0 -49 5
-76 35 -17 19 -39 35 -48 35 -21 0 -88 34 -104 54 -10 12 -7 28 16 87 31 81
43 89 129 89 58 0 53 3 124 -77 21 -25 61 -30 104 -13 42 16 33 46 -22 74 -27
13 -55 32 -63 42 -45 54 -188 72 -267 33z"/>
<path d="M3267 3045 c-46 -35 -67 -77 -67 -135 0 -44 -20 -99 -40 -110 -30
-16 -48 -60 -65 -155 -8 -48 -15 -89 -15 -90 0 -2 -15 -21 -33 -43 -24 -28
-38 -59 -47 -103 -13 -62 -13 -62 13 -85 44 -38 77 -18 91 56 14 70 26 88 76
109 40 17 69 21 162 21 131 0 150 -9 162 -77 12 -70 26 -92 65 -104 39 -11 91
1 91 22 0 6 -11 24 -24 39 -15 19 -28 53 -35 96 -14 80 -31 115 -68 142 -24
18 -27 26 -29 94 -2 84 -23 143 -60 174 -17 14 -31 42 -43 91 -10 39 -22 76
-25 82 -14 22 -63 11 -109 -24z m127 -181 c3 -9 6 -42 6 -74 0 -31 7 -76 15
-99 8 -23 12 -48 8 -57 -16 -43 -163 -63 -196 -26 -47 52 -30 128 49 210 61
63 105 80 118 46z"/>
<path d="M8409 3064 c-11 -13 -14 -88 -14 -367 0 -374 0 -377 49 -377 44 0 46
12 46 237 0 202 1 214 21 234 13 13 30 19 47 17 23 -3 30 -11 45 -58 10 -32
30 -67 50 -86 18 -17 41 -55 51 -83 14 -39 28 -58 56 -76 28 -18 39 -33 44
-59 8 -41 87 -133 122 -142 15 -4 34 0 49 10 l25 16 0 348 c0 375 -3 397 -50
397 -44 0 -50 -31 -50 -255 0 -181 -3 -210 -20 -247 -30 -68 -55 -57 -85 36
-16 49 -26 63 -69 99 -8 6 -20 30 -26 52 -6 24 -24 50 -45 67 -19 16 -45 53
-59 83 -29 65 -124 170 -153 170 -11 0 -27 -7 -34 -16z"/>
<path d="M13419 3064 c-18 -22 -26 -441 -9 -502 17 -65 62 -67 80 -4 15 55 13
461 -3 492 -15 30 -49 37 -68 14z"/>
<path d="M4731 3051 c-18 -18 -41 -98 -41 -140 0 -11 -13 -44 -30 -76 -37 -71
-60 -146 -61 -204 -1 -68 -12 -96 -36 -99 -27 -4 -55 46 -79 143 -9 37 -28 80
-41 95 -18 22 -26 48 -34 117 -13 115 -26 152 -55 165 -39 18 -64 -12 -64 -76
0 -67 24 -176 47 -216 10 -18 24 -43 31 -57 8 -13 20 -66 27 -116 23 -149 65
-255 110 -275 58 -27 91 -1 106 83 6 33 21 76 34 95 39 58 48 90 54 195 6 95
7 100 29 103 32 5 48 -11 83 -84 16 -35 34 -64 40 -64 5 0 18 -9 29 -20 15
-15 20 -33 20 -77 0 -93 17 -173 42 -200 12 -13 40 -28 61 -34 35 -9 44 -8 66
9 23 17 27 30 36 113 9 79 14 98 36 121 30 32 45 77 60 184 6 43 13 93 15 111
3 18 17 47 31 64 49 58 40 175 -11 156 -9 -4 -27 -28 -40 -56 -14 -27 -30 -52
-36 -56 -29 -18 -51 -91 -65 -216 -8 -73 -19 -137 -24 -142 -15 -15 -150 53
-155 78 -3 11 -12 71 -20 134 -16 120 -35 166 -94 229 -35 37 -45 39 -71 13z"/>
<path d="M7521 3047 c-21 -26 -27 -112 -26 -352 0 -265 3 -277 61 -301 18 -8
41 -26 51 -40 24 -37 71 -54 145 -54 84 0 121 12 161 52 19 18 45 40 59 50 19
13 29 35 46 105 28 115 34 445 9 505 -25 60 -89 64 -103 5 -5 -18 -7 -126 -6
-242 2 -168 -1 -221 -14 -265 -29 -100 -27 -98 -88 -105 -58 -8 -139 0 -168
16 -36 20 -51 112 -58 359 -6 236 -13 280 -44 280 -8 0 -19 -6 -25 -13z"/>
<path d="M10320 3050 c0 -5 -24 -34 -54 -65 -57 -58 -76 -106 -76 -194 0 -27
-9 -49 -30 -76 -17 -21 -40 -70 -52 -109 -24 -81 -33 -96 -59 -96 -26 0 -46
36 -54 100 -8 62 -17 82 -55 126 -21 25 -28 45 -33 101 -11 112 -26 144 -83
175 -62 34 -68 35 -59 1 3 -16 14 -68 24 -118 24 -122 29 -135 66 -176 28 -31
33 -47 44 -126 10 -75 19 -101 47 -144 19 -30 38 -66 41 -81 3 -15 16 -37 29
-49 38 -35 71 -18 111 56 56 105 63 123 74 201 8 54 19 84 36 104 36 44 62
110 73 191 6 41 18 85 28 99 25 34 33 57 26 75 -7 16 -44 21 -44 5z"/>
<path d="M9371 2967 c-11 -29 -18 -598 -7 -615 4 -7 20 -12 36 -12 16 0 32 5
36 12 11 17 4 586 -7 615 -5 14 -17 23 -29 23 -12 0 -24 -9 -29 -23z"/>
<path d="M13420 2390 c-27 -27 -25 -56 5 -76 23 -15 27 -15 50 0 14 9 25 25
25 36 0 21 -33 60 -50 60 -5 0 -19 -9 -30 -20z"/>
</g>
</svg>
